<svg version="1.1" id="Layer_1" xmlns="http://www.w3.org/2000/svg" xmlns:xlink="http://www.w3.org/1999/xlink" x="0px" y="0px"
	 width="100%" viewBox="0 0 800 533" enable-background="new 0 0 800 533" xml:space="preserve">
<path fill="#FFFFFF" opacity="1.000000" stroke="none" 
	d="
M234.000000,534.000000 
	C156.347519,534.000000 78.695023,534.000000 1.021269,534.000000 
	C1.021269,356.379944 1.021269,178.759903 1.021269,1.069924 
	C267.571350,1.069924 534.142761,1.069924 800.857056,1.069924 
	C800.857056,178.666595 800.857056,356.333282 800.857056,534.000000 
	C721.564758,534.000000 642.246277,534.000000 562.441772,533.753296 
	C561.955872,533.506653 561.801270,533.036133 561.873047,532.570557 
	C561.862915,525.738464 561.781006,519.372009 561.794983,512.545044 
	C561.840454,505.703888 561.790100,499.323273 562.194824,492.869293 
	C564.607117,492.795898 566.564209,492.795898 568.797302,492.795898 
	C568.902100,490.866302 569.056091,489.414124 569.047791,487.962891 
	C568.977478,475.638062 569.215637,463.299652 568.715820,450.991547 
	C567.696045,425.878052 566.274170,400.780823 565.328125,375.852478 
	C571.575684,383.327545 577.513062,390.627045 583.567627,398.070618 
	C585.425293,396.678009 586.995483,395.500916 588.847168,394.583069 
	C593.537842,398.095001 597.730469,401.708618 602.407043,404.515961 
	C609.474182,408.758301 617.164429,411.733643 625.616333,410.497772 
	C639.408691,408.480865 646.725647,399.497223 649.856262,386.600006 
	C653.058960,373.405731 651.921082,360.107208 649.309998,347.059814 
	C646.550171,333.268921 644.562561,319.473694 646.309326,305.498596 
	C647.192444,298.433716 645.688904,293.066315 639.764465,289.101440 
	C637.201233,287.386047 636.526367,285.385040 637.598511,282.295471 
	C639.337952,277.282684 640.826660,272.141663 641.835815,266.941193 
	C642.149475,265.324890 640.567932,263.340820 639.854065,261.525085 
	C638.281982,262.452728 636.159912,263.011292 635.242554,264.378326 
	C632.655701,268.233490 630.699341,272.506897 628.207214,276.433105 
	C627.259277,277.926514 625.528381,278.922943 624.154297,280.145905 
	C623.412292,278.537659 622.225586,276.985687 622.013550,275.310333 
	C621.430481,270.703491 621.603882,265.980347 620.759888,261.436554 
	C620.388794,259.438660 618.609924,256.720642 616.881775,256.167328 
	C613.605652,255.118362 612.781677,258.145905 612.613159,260.756104 
	C611.992615,270.366302 611.169128,279.981720 611.095764,289.600281 
	C611.064697,293.682251 610.390381,296.633911 606.702942,298.639771 
	C603.010559,300.648285 602.259827,304.020325 603.510132,307.653900 
	C605.285217,312.812439 606.870239,318.188019 609.626160,322.822998 
	C614.121948,330.384338 617.344849,338.217316 618.492065,346.933105 
	C619.228210,352.525848 620.396545,358.076080 620.848938,363.687469 
	C621.250916,368.672699 620.933350,373.715942 620.933350,378.733582 
	C620.351257,378.905731 619.769226,379.077850 619.187134,379.249969 
	C616.431763,377.226196 613.676392,375.202423 611.100220,372.876190 
	C617.163757,366.729401 617.433044,366.524689 612.270874,359.733398 
	C603.737549,348.507111 595.060303,337.368835 585.943542,326.617645 
	C582.190247,322.191437 577.140686,318.864380 572.431030,314.838684 
	C563.311829,304.640106 552.045654,299.128357 539.039551,296.740662 
	C535.218445,296.039154 531.480225,294.886383 528.789612,294.212372 
	C535.780029,287.724609 543.328064,281.527344 549.882812,274.414673 
	C556.803589,266.904877 559.297241,257.030945 561.403870,247.299545 
	C573.849243,247.680450 579.414429,244.342468 583.269775,234.349579 
	C587.094055,224.437149 584.355835,212.504303 577.161865,207.397797 
	C584.473450,188.228897 589.720642,168.872314 592.726624,148.873291 
	C593.494568,143.764130 592.393250,139.988983 588.848022,136.312683 
	C582.861755,130.105072 575.664978,127.288628 566.992798,126.897728 
	C573.713562,123.500999 580.434387,120.104271 588.005005,116.278015 
	C575.876770,106.031723 565.246277,114.396645 554.404297,117.283379 
	C542.699646,100.637619 527.346252,88.596161 507.509125,84.628197 
	C489.788940,81.083679 471.565033,80.027245 453.539062,78.100197 
	C452.115814,77.948059 450.149902,79.243637 449.033539,80.428986 
	C440.893463,89.072098 435.871368,99.527206 431.905182,110.575592 
	C431.243195,112.419701 430.572235,114.415497 429.349396,115.875465 
	C425.022156,121.041672 420.453644,126.005814 415.823181,130.682510 
	C416.233490,127.583382 414.739594,126.557716 412.357941,125.797775 
	C406.718384,123.998314 401.157196,121.953262 395.052429,119.829414 
	C401.650726,109.277588 403.434357,98.398979 401.514771,86.320007 
	C389.906677,91.050789 378.587738,95.663734 367.073792,100.082489 
	C366.741882,99.766205 366.604950,99.644104 366.544983,99.173691 
	C371.120819,89.681023 375.619659,80.536690 380.370209,70.880684 
	C378.830078,70.880684 378.172852,70.820724 377.529358,70.889351 
	C354.788727,73.314545 332.513733,77.839546 310.980713,85.693619 
	C292.918701,92.281647 276.021362,100.566383 264.680237,117.103951 
	C264.077240,117.983231 262.511230,118.725677 261.433228,118.675690 
	C248.841385,118.091721 239.118515,124.021217 230.128983,131.942719 
	C227.115799,134.597885 226.022491,137.503220 226.196594,141.533707 
	C227.127762,163.089935 230.751587,184.175369 236.346512,205.146484 
	C224.225800,220.232758 229.673965,238.867065 247.726257,244.661057 
	C249.285400,265.075989 258.899628,280.994720 277.094879,293.227234 
	C269.550476,293.899292 263.383118,293.880463 257.467407,295.091187 
	C244.179077,297.810791 230.644272,300.089508 217.928482,304.581909 
	C209.058105,307.715759 201.237961,313.701477 191.805817,316.318024 
	C186.309708,317.842712 183.511551,322.727112 183.602203,328.931854 
	C179.437286,330.771515 175.621948,332.508881 171.659515,334.313263 
	C173.198624,337.498535 174.473007,340.135956 175.341446,342.831055 
	C173.944885,343.020233 172.944595,343.101746 171.965073,343.290863 
	C161.513657,345.308899 158.405609,343.160156 156.856079,332.621094 
	C156.422821,329.674316 155.892960,326.642761 156.143219,323.712921 
	C156.919846,314.621033 157.409470,305.430908 159.196945,296.516785 
	C161.735840,283.855377 165.142029,271.354431 168.532501,258.881378 
	C171.352905,248.505447 177.782578,240.266769 184.962051,232.467484 
	C186.257248,231.060440 186.880020,227.650970 186.083862,225.999893 
	C184.581955,222.885239 181.633362,224.175583 179.159378,225.509766 
	C176.155197,227.129913 173.126144,228.703995 170.451569,230.116486 
	C163.405579,219.375809 156.855331,209.158600 149.982727,199.163040 
	C148.943588,197.651703 146.403488,197.172394 144.557663,196.215714 
	C144.444641,198.288757 143.815567,200.497864 144.319275,202.408295 
	C145.618698,207.336731 147.418884,212.133148 149.011017,216.989685 
	C149.003006,216.997070 148.991776,217.010330 148.659363,216.920197 
	C147.072006,216.016769 145.800232,215.228134 144.565094,214.385803 
	C139.896744,211.202103 135.339722,207.836075 130.509155,204.922806 
	C129.308090,204.198456 127.236916,204.916901 125.565674,204.972168 
	C125.759438,206.787918 125.745682,208.663055 126.240707,210.392563 
	C126.464470,211.174332 127.725777,211.637375 128.472488,212.294846 
	C132.590912,215.920944 136.695740,219.562454 140.805237,223.198669 
	C140.557358,223.571625 140.309494,223.944565 140.061630,224.317505 
	C138.558899,223.799561 137.028900,223.348465 135.559311,222.749222 
	C132.790771,221.620407 130.138031,220.084534 127.274559,219.363708 
	C125.849266,219.004913 124.064270,220.074997 122.441994,220.498703 
	C123.021729,222.028427 123.186630,224.005585 124.261047,225.001770 
	C127.175034,227.703583 130.517258,229.937500 133.601074,232.465073 
	C134.870819,233.505798 135.913666,234.823334 137.059708,236.014969 
	C136.851013,236.354065 136.642303,236.693146 136.433594,237.032227 
	C131.694839,236.705963 126.956070,236.379700 121.019302,235.970947 
	C124.136353,242.041275 128.784241,243.692596 133.129196,245.304230 
	C136.431961,246.529282 137.620514,248.252792 137.048660,251.570511 
	C136.655716,253.850235 136.593613,256.193573 136.110870,258.450134 
	C133.890244,268.830627 131.308685,279.140900 129.352707,289.569397 
	C126.283325,305.934082 124.313721,322.420074 126.910683,339.075439 
	C132.307693,373.688751 162.140289,380.208954 190.326828,370.039307 
	C191.215897,370.998352 192.028320,371.721405 192.331894,372.616974 
	C194.286072,378.381866 197.885361,380.217224 203.752731,378.122925 
	C206.535385,377.129639 209.602905,376.924286 212.547668,376.397095 
	C219.492157,375.153809 226.440414,373.931610 232.805939,372.803833 
	C231.412506,413.056915 230.040817,452.682251 228.664520,492.440552 
	C232.024750,492.699249 233.997040,492.851105 235.961914,493.449829 
	C235.302994,507.264465 234.651505,520.632202 234.000000,534.000000 
z"/>
<path fill="#FEFEFE" opacity="1.000000" stroke="none" 
	d="
M426.000000,534.000000 
	C409.312439,534.000000 392.624878,534.000000 375.490204,533.531738 
	C375.046387,519.708374 375.049683,506.353180 375.479492,492.940704 
	C380.118134,493.472412 380.272858,490.983368 380.103973,487.761475 
	C377.874481,445.220276 379.534088,402.707428 381.182190,360.196869 
	C381.251007,358.421326 380.365204,355.830109 384.005554,356.300720 
	C395.443390,362.401794 406.644196,368.229919 417.853088,374.522461 
	C418.422119,414.088104 418.983063,453.189301 419.548401,492.596100 
	C420.511963,492.677094 422.299805,492.827393 424.097473,493.428467 
	C424.328094,498.495209 424.548889,503.111145 424.490845,507.985718 
	C424.413666,509.909668 424.615326,511.575012 424.865326,513.689575 
	C425.275787,520.759216 425.637878,527.379639 426.000000,534.000000 
z"/>
<path fill="#5D5467" opacity="1.000000" stroke="none" 
	d="
M375.052979,492.998016 
	C375.049683,506.353180 375.046387,519.708374 375.021545,533.531738 
	C328.312439,534.000000 281.624878,534.000000 234.468658,534.000000 
	C234.651505,520.632202 235.302994,507.264465 236.430450,493.398590 
	C282.955261,492.932983 329.004120,492.965485 375.052979,492.998016 
z"/>
<path fill="#779BB1" opacity="1.000000" stroke="none" 
	d="
M426.468628,534.000000 
	C425.637878,527.379639 425.275787,520.759216 425.339752,513.642944 
	C432.622864,512.413330 439.608337,512.268005 446.306366,510.805817 
	C455.961884,508.698029 461.003448,501.931885 461.346619,492.893738 
	C482.917419,492.882935 504.012848,492.913300 525.073303,493.365173 
	C524.589539,500.782898 528.320435,505.377014 534.001465,508.502350 
	C542.402771,513.124207 551.627258,513.448242 561.124634,512.978882 
	C561.316101,512.988953 561.699158,513.005554 561.699158,513.005554 
	C561.781006,519.372009 561.862915,525.738464 561.690979,532.685669 
	C561.218262,533.467285 561.072571,533.711853 561.000000,534.000000 
	C516.312439,534.000000 471.624878,534.000000 426.468628,534.000000 
z"/>
<path fill="#7A9DB2" opacity="1.000000" stroke="none" 
	d="
M561.250000,534.000000 
	C561.072571,533.711853 561.218262,533.467285 561.619202,533.151245 
	C561.801270,533.036133 561.955872,533.506653 561.977905,533.753296 
	C562.000000,534.000000 561.500000,534.000000 561.250000,534.000000 
z"/>
<path fill="#EB9A41" opacity="1.000000" stroke="none" 
	d="
M375.479492,492.940704 
	C329.004120,492.965485 282.955261,492.932983 236.437881,492.951721 
	C233.997040,492.851105 232.024750,492.699249 228.664520,492.440552 
	C230.040817,452.682251 231.412506,413.056915 232.805939,372.803833 
	C226.440414,373.931610 219.492157,375.153809 212.547668,376.397095 
	C209.602905,376.924286 206.535385,377.129639 203.752731,378.122925 
	C197.885361,380.217224 194.286072,378.381866 192.331894,372.616974 
	C192.028320,371.721405 191.215897,370.998352 190.337692,369.674133 
	C185.273529,360.359650 180.510452,351.566528 175.747375,342.773376 
	C174.473007,340.135956 173.198624,337.498535 171.659515,334.313263 
	C175.621948,332.508881 179.437286,330.771515 183.758423,329.273132 
	C186.205399,330.341034 188.085434,331.385040 190.099503,331.957336 
	C195.527985,333.499786 201.013611,334.841125 207.865112,336.623535 
	C202.800125,339.558411 198.959290,341.521118 195.452667,343.963623 
	C194.282974,344.778381 193.968735,346.821198 193.263428,348.302643 
	C194.702316,348.841034 196.127884,349.758301 197.583862,349.809448 
	C198.991974,349.858917 200.440414,349.042877 201.855667,348.561554 
	C212.668533,344.884369 223.477585,341.195984 234.553650,337.420502 
	C236.300491,341.007172 237.837646,344.888702 240.054642,348.332550 
	C240.860138,349.583771 243.553009,350.648071 244.901062,350.231750 
	C246.239487,349.818329 247.187149,347.527527 247.884262,345.881378 
	C248.296707,344.907440 248.077866,343.544922 247.824402,342.429504 
	C245.923569,334.065033 247.233841,325.984222 249.497910,317.877289 
	C250.502853,314.278839 252.036774,312.757629 256.018433,312.852600 
	C267.671967,313.130585 279.336487,312.949738 291.087372,313.166504 
	C291.345703,313.665649 291.582367,313.864899 291.904022,314.417328 
	C292.163605,328.181396 301.603607,336.814941 315.272339,337.104919 
	C325.922638,337.330841 338.475494,325.441223 336.999573,313.719330 
	C337.014282,313.290497 337.020996,313.118988 337.484344,312.948059 
	C348.892029,314.003540 358.334015,308.659912 368.704102,305.757538 
	C378.025391,303.192627 386.998688,300.645844 396.383026,298.070587 
	C405.152557,296.323456 413.510986,294.604797 422.351746,292.786987 
	C422.351746,295.373535 422.351746,297.029358 422.256836,299.164673 
	C422.211487,310.465973 422.261078,321.287720 422.266174,332.568939 
	C422.210388,336.846771 422.044891,340.672913 422.236877,344.481018 
	C422.387604,347.470703 421.587067,348.726379 418.302246,349.290649 
	C406.746246,351.275726 395.273132,353.743256 383.768585,356.027710 
	C380.365204,355.830109 381.251007,358.421326 381.182190,360.196869 
	C379.534088,402.707428 377.874481,445.220276 380.103973,487.761475 
	C380.272858,490.983368 380.118134,493.472412 375.479492,492.940704 
M335.574768,413.432465 
	C342.235809,410.521423 349.122559,408.023895 355.479065,404.554810 
	C359.754059,402.221680 363.379303,398.217255 361.818024,392.700531 
	C360.381958,387.626221 355.896729,385.081482 350.987579,384.362274 
	C349.200623,384.100494 346.199554,385.750671 345.305756,387.380432 
	C344.185577,389.422974 344.534698,392.317139 347.983673,393.179260 
	C349.127136,393.465057 350.102936,394.421539 352.644562,395.990814 
	C347.473938,398.078186 343.605103,399.640045 339.765411,400.355957 
	C339.536072,398.210297 339.243530,396.069214 339.087158,393.918243 
	C337.586365,373.272491 313.291656,360.932373 295.757446,371.841309 
	C285.656647,378.125549 277.719910,392.185791 282.168030,409.022644 
	C278.133942,408.420074 274.099884,407.817505 270.065796,407.214935 
	C270.022980,406.566986 269.980164,405.919067 269.937347,405.271118 
	C271.755463,403.939484 273.905060,402.879822 275.289398,401.192322 
	C276.447815,399.780273 277.653351,397.253906 277.113495,395.917725 
	C276.544922,394.510468 273.927277,393.132812 272.209625,393.138611 
	C267.172272,393.155640 260.415100,399.851196 259.978455,404.613800 
	C259.402557,410.895172 262.625427,415.499634 269.739471,416.844452 
	C276.358612,418.095642 283.170013,418.329956 290.058746,419.679291 
	C304.008148,433.780640 325.798981,430.990326 335.574768,413.432465 
z"/>
<path fill="#AF2F34" opacity="1.000000" stroke="none" 
	d="
M525.108276,492.943665 
	C504.012848,492.913300 482.917419,492.882935 460.943024,492.866028 
	C458.447601,492.887512 456.831116,492.895569 454.733215,492.874329 
	C444.197083,492.889221 434.142365,492.933441 424.087646,492.977661 
	C422.299805,492.827393 420.511963,492.677094 419.548401,492.596100 
	C418.983063,453.189301 418.422119,414.088104 418.133240,374.283508 
	C423.944702,357.922882 429.484131,342.265656 435.301636,326.422729 
	C444.025024,323.201263 452.470367,320.165436 460.950134,317.117249 
	C461.951385,319.980591 462.386963,321.576416 463.052032,323.070038 
	C466.736176,331.343719 473.099701,336.160400 482.117035,336.962524 
	C491.828918,337.826477 499.372742,333.779266 503.964600,325.281799 
	C505.766388,321.947510 506.036133,317.785309 507.001831,314.000061 
	C507.000000,314.000000 507.000183,314.005371 507.445099,313.914429 
	C515.346069,314.871490 522.802124,315.919464 531.302490,317.114227 
	C528.534241,323.188965 526.459473,328.024353 524.140259,332.739532 
	C522.371033,336.336334 524.165527,338.004181 527.281311,338.036682 
	C529.345276,338.058258 531.754700,337.013947 533.411987,335.695709 
	C535.396606,334.117157 536.744812,331.738586 538.368591,329.706451 
	C538.899963,330.054749 539.431274,330.403046 539.962646,330.751373 
	C540.941284,341.593628 541.994019,352.430023 542.853333,363.281708 
	C543.111816,366.545807 543.661133,369.733765 547.534119,369.597626 
	C551.286011,369.465759 551.883057,366.279938 552.057861,363.019623 
	C552.307617,358.359161 552.871094,353.715485 553.300598,349.064636 
	C554.797241,352.846558 555.507935,356.710449 556.332886,360.549774 
	C556.958923,363.463379 558.120422,365.737427 561.871216,364.420898 
	C562.989380,368.422943 564.003662,372.049927 565.017883,375.676910 
	C566.274170,400.780823 567.696045,425.878052 568.715820,450.991547 
	C569.215637,463.299652 568.977478,475.638062 569.047791,487.962891 
	C569.056091,489.414124 568.902100,490.866302 568.797302,492.795898 
	C566.564209,492.795898 564.607117,492.795898 561.752563,492.810913 
	C550.822388,492.846375 540.789673,492.866852 530.358276,492.870117 
	C528.342468,492.883179 526.725403,492.913422 525.108276,492.943665 
z"/>
<path fill="#FEBD84" opacity="1.000000" stroke="none" 
	d="
M507.003601,314.000153 
	C506.036133,317.785309 505.766388,321.947510 503.964600,325.281799 
	C499.372742,333.779266 491.828918,337.826477 482.117035,336.962524 
	C473.099701,336.160400 466.736176,331.343719 463.052032,323.070038 
	C462.386963,321.576416 461.951385,319.980591 460.950134,317.117249 
	C452.470367,320.165436 444.025024,323.201263 434.921143,326.521423 
	C430.278595,328.573669 426.294617,330.341553 422.310638,332.109436 
	C422.261078,321.287720 422.211487,310.465973 422.613159,299.229523 
	C433.422760,296.058411 443.781128,293.302002 454.489105,290.452576 
	C434.495819,279.169220 421.243591,259.823853 421.799103,236.199478 
	C421.828461,234.950241 420.599823,232.806580 419.573334,232.536438 
	C412.414307,230.652328 409.101929,225.405151 406.924133,218.596985 
	C405.495056,208.863159 406.742523,200.349655 414.485016,194.093781 
	C417.053955,204.400314 419.397858,214.322571 421.741730,224.244843 
	C422.141998,224.196808 422.542236,224.148773 422.942474,224.100754 
	C427.359894,204.745697 431.777283,185.390640 435.957062,167.076706 
	C455.448090,166.463699 474.051392,166.217499 492.612396,165.200089 
	C511.385742,164.171036 529.542664,159.513062 547.723083,153.570236 
	C552.432495,182.072067 557.032776,209.913528 561.633118,237.754974 
	C562.115173,237.796448 562.597290,237.837921 563.079346,237.879395 
	C567.774231,227.833527 572.469177,217.787659 577.164062,207.741791 
	C584.355835,212.504303 587.094055,224.437149 583.269775,234.349579 
	C579.414429,244.342468 573.849243,247.680450 561.403870,247.299545 
	C559.297241,257.030945 556.803589,266.904877 549.882812,274.414673 
	C543.328064,281.527344 535.780029,287.724609 528.789612,294.212372 
	C531.480225,294.886383 535.218445,296.039154 539.039551,296.740662 
	C552.045654,299.128357 563.311829,304.640106 572.551758,315.199890 
	C573.415100,316.808167 573.994446,317.825195 574.387451,318.909729 
	C579.960693,334.289642 580.090393,347.501495 566.916504,358.675842 
	C565.035278,360.271545 563.475708,362.246429 561.767212,364.045807 
	C558.120422,365.737427 556.958923,363.463379 556.332886,360.549774 
	C555.507935,356.710449 554.797241,352.846558 553.300598,349.064636 
	C552.871094,353.715485 552.307617,358.359161 552.057861,363.019623 
	C551.883057,366.279938 551.286011,369.465759 547.534119,369.597626 
	C543.661133,369.733765 543.111816,366.545807 542.853333,363.281708 
	C541.994019,352.430023 540.941284,341.593628 539.962646,330.751373 
	C539.431274,330.403046 538.899963,330.054749 538.368591,329.706451 
	C536.744812,331.738586 535.396606,334.117157 533.411987,335.695709 
	C531.754700,337.013947 529.345276,338.058258 527.281311,338.036682 
	C524.165527,338.004181 522.371033,336.336334 524.140259,332.739532 
	C526.459473,328.024353 528.534241,323.188965 531.302490,317.114227 
	C522.802124,315.919464 515.346069,314.871490 507.461243,313.447083 
	C507.032440,308.284027 507.032440,303.497375 507.032440,299.325592 
	C491.421173,297.581116 476.428253,295.905762 461.028748,294.184937 
	C461.028748,298.175842 460.832672,302.650818 461.159363,307.087280 
	C461.246826,308.274811 462.759521,310.084045 463.908325,310.349060 
	C471.449219,312.088715 479.013428,314.120819 486.681274,314.798370 
	C493.379578,315.390228 500.223816,314.330322 507.003601,314.000153 
M467.948517,239.584412 
	C466.255646,238.751266 464.562775,237.918137 462.406891,236.857132 
	C461.848236,243.615189 463.829468,248.833130 466.609039,254.059830 
	C473.579041,267.166168 501.432770,269.998932 511.515930,262.331177 
	C517.891907,257.482483 521.984619,251.629318 523.034729,242.885880 
	C520.638916,243.356308 518.915405,243.694733 516.267212,243.994705 
	C507.078674,244.000565 497.853912,244.507629 488.713470,243.847366 
	C481.891449,243.354584 475.178345,241.353775 467.948517,239.584412 
M540.091064,215.412964 
	C539.849426,208.539185 537.333862,204.400146 533.276184,204.199890 
	C529.257812,204.001572 525.383179,208.800308 524.960754,214.498489 
	C524.442688,221.485168 527.079834,226.458344 531.502808,226.835892 
	C535.641541,227.189163 538.993896,223.046722 540.091064,215.412964 
M453.635437,200.223892 
	C450.875092,204.718933 449.820679,209.602478 452.196106,214.381241 
	C453.205536,216.412018 455.822266,218.735992 457.842743,218.867676 
	C459.901184,219.001816 463.270630,217.073730 464.029114,215.216629 
	C465.458649,211.716599 466.222107,207.535141 465.827301,203.788132 
	C465.099487,196.880051 459.681030,195.183670 453.635437,200.223892 
M527.951965,182.363052 
	C527.758972,184.463058 527.566040,186.563049 527.326294,189.172470 
	C533.700684,189.807571 539.705261,190.405823 545.949280,191.027924 
	C546.300720,187.659760 546.587646,184.909668 546.918579,181.738068 
	C541.044312,181.143921 535.631653,180.536987 530.204346,180.122299 
	C529.520630,180.070038 528.759583,181.028976 527.951965,182.363052 
M447.793854,176.039017 
	C447.613770,177.610413 447.433685,179.181793 447.216095,181.080383 
	C453.685760,181.756531 459.564453,182.370911 465.660004,183.007950 
	C466.059021,180.600327 466.814484,178.608444 466.548981,176.763458 
	C466.364655,175.482742 464.923645,173.587219 463.787476,173.381119 
	C459.563751,172.614990 455.235260,172.219742 450.942719,172.190903 
	C449.925110,172.184036 448.894257,174.143265 447.793854,176.039017 
z"/>
<path fill="#FEBE84" opacity="1.000000" stroke="none" 
	d="
M368.356049,305.775696 
	C358.334015,308.659912 348.892029,314.003540 337.484680,312.490601 
	C337.028320,308.458130 337.028320,304.883667 337.028320,300.998779 
	C333.121796,300.998779 330.140533,301.063660 327.162933,300.986908 
	C317.378021,300.734680 307.559814,300.837463 297.822144,300.008331 
	C291.006256,299.427979 291.059418,298.847290 291.047089,305.957458 
	C291.043030,308.287872 291.014191,310.618256 290.996704,312.948639 
	C279.336487,312.949738 267.671967,313.130585 256.018433,312.852600 
	C252.036774,312.757629 250.502853,314.278839 249.497910,317.877289 
	C247.233841,325.984222 245.923569,334.065033 247.824402,342.429504 
	C248.077866,343.544922 248.296707,344.907440 247.884262,345.881378 
	C247.187149,347.527527 246.239487,349.818329 244.901062,350.231750 
	C243.553009,350.648071 240.860138,349.583771 240.054642,348.332550 
	C237.837646,344.888702 236.300491,341.007172 234.553650,337.420502 
	C223.477585,341.195984 212.668533,344.884369 201.855667,348.561554 
	C200.440414,349.042877 198.991974,349.858917 197.583862,349.809448 
	C196.127884,349.758301 194.702316,348.841034 193.263428,348.302643 
	C193.968735,346.821198 194.282974,344.778381 195.452667,343.963623 
	C198.959290,341.521118 202.800125,339.558411 207.865112,336.623535 
	C201.013611,334.841125 195.527985,333.499786 190.099503,331.957336 
	C188.085434,331.385040 186.205399,330.341034 184.108002,329.170837 
	C183.511551,322.727112 186.309708,317.842712 191.805817,316.318024 
	C201.237961,313.701477 209.058105,307.715759 217.928482,304.581909 
	C230.644272,300.089508 244.179077,297.810791 257.467407,295.091187 
	C263.383118,293.880463 269.550476,293.899292 277.094879,293.227234 
	C258.899628,280.994720 249.285400,265.075989 247.726257,244.661057 
	C229.673965,238.867065 224.225800,220.232758 236.488708,205.455978 
	C240.228287,215.183380 243.540588,224.845001 246.852890,234.506638 
	C247.293869,234.436935 247.734848,234.367249 248.175827,234.297562 
	C252.390060,209.374405 256.604309,184.451263 260.721893,160.099716 
	C272.241089,161.693573 283.011658,163.868546 293.871643,164.495819 
	C304.953094,165.135880 316.152802,164.697815 327.245850,163.934006 
	C342.797607,162.863174 358.314789,161.197418 373.808105,159.444580 
	C377.024994,159.080643 378.527740,159.539307 378.906921,162.797516 
	C380.939209,180.260468 382.983429,197.722122 385.083435,215.177032 
	C385.825226,221.342575 386.736420,227.487732 387.570282,233.642181 
	C388.005432,233.725830 388.440613,233.809494 388.875763,233.893143 
	C392.471771,224.538437 396.067749,215.183731 399.930481,206.092865 
	C401.948883,210.584976 403.700531,214.813278 405.370544,219.488281 
	C405.204712,222.264038 405.365601,224.633301 404.991211,226.914719 
	C403.792542,234.218445 400.648163,240.607254 393.116180,242.708374 
	C388.671600,243.948212 387.626770,246.341812 387.075806,250.177750 
	C384.931732,265.105103 378.240540,277.600739 366.457520,287.136627 
	C362.563232,290.288269 358.306366,292.991852 353.271362,296.571320 
	C358.971466,297.187317 363.528473,297.679779 368.115906,298.593872 
	C368.216278,301.268951 368.286163,303.522308 368.356049,305.775696 
M291.067657,244.745804 
	C289.563538,244.441086 288.059418,244.136383 286.149933,243.749542 
	C285.834595,253.363129 286.726837,261.793121 294.121735,268.845642 
	C304.314972,282.442474 327.717651,282.555176 339.512115,268.699036 
	C345.572937,261.601898 347.999756,253.485962 346.646454,243.802292 
	C344.577087,244.280548 342.862427,244.676834 340.336304,245.126266 
	C333.655151,246.073929 326.958496,247.882950 320.296509,247.763336 
	C310.780243,247.592514 301.289337,246.009720 291.067657,244.745804 
M363.933044,212.896591 
	C362.510956,209.863403 360.336060,206.751099 356.891785,208.109238 
	C354.261017,209.146606 351.067047,212.118271 350.654510,214.643066 
	C350.009705,218.589294 350.670410,223.256348 352.307098,226.938339 
	C354.314728,231.454697 360.012054,231.202606 362.815430,227.001755 
	C365.586700,222.848953 365.663452,218.306442 363.933044,212.896591 
M283.044373,221.960922 
	C282.418976,218.294266 282.506622,214.294617 280.988953,211.044647 
	C279.062256,206.918900 274.047150,206.740921 270.995941,209.955307 
	C266.834412,214.339401 267.096252,224.082825 271.486603,228.213867 
	C274.575897,231.120697 278.409363,230.801468 280.821686,227.268707 
	C281.737488,225.927582 282.231842,224.298660 283.044373,221.960922 
M278.718994,190.935654 
	C280.481812,191.301208 282.255463,191.985611 284.003876,191.926392 
	C285.286804,191.882965 287.011108,191.179764 287.667664,190.191803 
	C288.321503,189.207855 288.278961,186.428802 287.871887,186.280914 
	C284.309448,184.986847 280.478058,183.045593 276.966370,183.438889 
	C274.162689,183.752914 271.525909,186.887741 269.199677,189.163635 
	C268.644684,189.706650 269.189056,192.295578 270.030334,193.058136 
	C270.731262,193.693481 272.670441,193.250015 273.947174,192.885223 
	C275.333038,192.489243 276.587097,191.631821 278.718994,190.935654 
M352.817230,191.153275 
	C354.988495,191.628540 357.146271,192.183884 359.335510,192.552460 
	C360.940491,192.822647 362.586761,192.847794 364.214630,192.982147 
	C364.132904,191.143173 364.658661,188.963379 363.854401,187.529785 
	C361.541077,183.406418 354.636688,181.566360 349.660309,183.884369 
	C347.813080,184.744797 345.311554,187.304520 345.493744,188.798401 
	C345.928528,192.363739 348.974274,192.634750 352.817230,191.153275 
M188.593353,322.284973 
	C195.531845,323.855438 202.508240,325.702362 209.083923,319.541565 
	C201.819641,320.241272 195.246353,320.874451 188.593353,322.284973 
z"/>
<path fill="#C06B3C" opacity="1.000000" stroke="none" 
	d="
M399.663757,205.829025 
	C396.067749,215.183731 392.471771,224.538437 388.875763,233.893143 
	C388.440613,233.809494 388.005432,233.725830 387.570282,233.642181 
	C386.736420,227.487732 385.825226,221.342575 385.083435,215.177032 
	C382.983429,197.722122 380.939209,180.260468 378.906921,162.797516 
	C378.527740,159.539307 377.024994,159.080643 373.808105,159.444580 
	C358.314789,161.197418 342.797607,162.863174 327.245850,163.934006 
	C316.152802,164.697815 304.953094,165.135880 293.871643,164.495819 
	C283.011658,163.868546 272.241089,161.693573 260.721893,160.099716 
	C256.604309,184.451263 252.390060,209.374405 248.175827,234.297562 
	C247.734848,234.367249 247.293869,234.436935 246.852890,234.506638 
	C243.540588,224.845001 240.228287,215.183380 236.773788,205.212250 
	C230.751587,184.175369 227.127762,163.089935 226.196594,141.533707 
	C226.022491,137.503220 227.115799,134.597885 230.128983,131.942719 
	C239.118515,124.021217 248.841385,118.091721 261.433228,118.675690 
	C262.511230,118.725677 264.077240,117.983231 264.680237,117.103951 
	C276.021362,100.566383 292.918701,92.281647 310.980713,85.693619 
	C332.513733,77.839546 354.788727,73.314545 377.529358,70.889351 
	C378.172852,70.820724 378.830078,70.880684 380.370209,70.880684 
	C375.619659,80.536690 371.120819,89.681023 366.394165,99.375603 
	C366.210388,100.159805 366.254425,100.393761 366.298431,100.627724 
	C366.621887,100.510712 366.945312,100.393700 367.268768,100.276688 
	C378.587738,95.663734 389.906677,91.050789 401.514771,86.320007 
	C403.434357,98.398979 401.650726,109.277588 395.052429,119.829414 
	C401.157196,121.953262 406.718384,123.998314 412.357941,125.797775 
	C414.739594,126.557716 416.233490,127.583382 415.830750,130.643311 
	C415.991730,130.968124 416.072235,130.966110 415.776947,131.054626 
	C415.350769,131.745422 415.219910,132.347687 415.084473,133.337418 
	C411.208191,142.380234 410.735504,151.543137 410.850494,161.168518 
	C406.999451,176.286926 403.331604,191.057983 399.663757,205.829025 
z"/>
<path fill="#5A3032" opacity="1.000000" stroke="none" 
	d="
M411.033722,160.821167 
	C410.735504,151.543137 411.208191,142.380234 415.338196,133.187073 
	C415.755066,132.088211 415.913666,131.527161 416.072266,130.966110 
	C416.072235,130.966110 415.991730,130.968124 415.984161,131.007324 
	C420.453644,126.005814 425.022156,121.041672 429.349396,115.875465 
	C430.572235,114.415497 431.243195,112.419701 431.905182,110.575592 
	C435.871368,99.527206 440.893463,89.072098 449.033539,80.428986 
	C450.149902,79.243637 452.115814,77.948059 453.539062,78.100197 
	C471.565033,80.027245 489.788940,81.083679 507.509125,84.628197 
	C527.346252,88.596161 542.699646,100.637619 554.404297,117.283379 
	C565.246277,114.396645 575.876770,106.031723 588.005005,116.278015 
	C580.434387,120.104271 573.713562,123.500999 566.992798,126.897728 
	C575.664978,127.288628 582.861755,130.105072 588.848022,136.312683 
	C592.393250,139.988983 593.494568,143.764130 592.726624,148.873291 
	C589.720642,168.872314 584.473450,188.228897 577.161865,207.397812 
	C572.469177,217.787659 567.774231,227.833527 563.079346,237.879395 
	C562.597290,237.837921 562.115173,237.796448 561.633118,237.754974 
	C557.032776,209.913528 552.432495,182.072067 547.723083,153.570236 
	C529.542664,159.513062 511.385742,164.171036 492.612396,165.200089 
	C474.051392,166.217499 455.448090,166.463699 435.957062,167.076706 
	C431.777283,185.390640 427.359894,204.745697 422.942474,224.100754 
	C422.542236,224.148773 422.141998,224.196808 421.741730,224.244843 
	C419.397858,214.322571 417.053955,204.400314 414.533020,193.725372 
	C413.248566,182.255524 412.141144,171.538345 411.033722,160.821167 
z"/>
<path fill="#FFBF85" opacity="1.000000" stroke="none" 
	d="
M175.341461,342.831055 
	C180.510452,351.566528 185.273529,360.359650 190.025742,369.517975 
	C162.140289,380.208954 132.307693,373.688751 126.910683,339.075439 
	C124.313721,322.420074 126.283325,305.934082 129.352707,289.569397 
	C131.308685,279.140900 133.890244,268.830627 136.110870,258.450134 
	C136.593613,256.193573 136.655716,253.850235 137.048660,251.570511 
	C137.620514,248.252792 136.431961,246.529282 133.129196,245.304230 
	C128.784241,243.692596 124.136353,242.041275 121.019302,235.970947 
	C126.956070,236.379700 131.694839,236.705963 136.433594,237.032227 
	C136.642303,236.693146 136.851013,236.354065 137.059708,236.014969 
	C135.913666,234.823334 134.870819,233.505798 133.601074,232.465073 
	C130.517258,229.937500 127.175034,227.703583 124.261047,225.001770 
	C123.186630,224.005585 123.021729,222.028427 122.441994,220.498703 
	C124.064270,220.074997 125.849266,219.004913 127.274559,219.363708 
	C130.138031,220.084534 132.790771,221.620407 135.559311,222.749222 
	C137.028900,223.348465 138.558899,223.799561 140.061630,224.317505 
	C140.309494,223.944565 140.557358,223.571625 140.805237,223.198669 
	C136.695740,219.562454 132.590912,215.920944 128.472488,212.294846 
	C127.725777,211.637375 126.464470,211.174332 126.240707,210.392563 
	C125.745682,208.663055 125.759438,206.787918 125.565674,204.972168 
	C127.236916,204.916901 129.308090,204.198456 130.509155,204.922806 
	C135.339722,207.836075 139.896744,211.202103 144.565094,214.385803 
	C145.800232,215.228134 147.072006,216.016769 148.722366,217.091278 
	C149.238846,217.391373 149.359909,217.430237 149.480988,217.469101 
	C149.327011,217.306824 149.173035,217.144562 149.019043,216.982300 
	C147.418884,212.133148 145.618698,207.336731 144.319275,202.408295 
	C143.815567,200.497864 144.444641,198.288757 144.557663,196.215714 
	C146.403488,197.172394 148.943588,197.651703 149.982727,199.163040 
	C156.855331,209.158600 163.405579,219.375809 170.451569,230.116486 
	C173.126144,228.703995 176.155197,227.129913 179.159378,225.509766 
	C181.633362,224.175583 184.581955,222.885239 186.083862,225.999893 
	C186.880020,227.650970 186.257248,231.060440 184.962051,232.467484 
	C177.782578,240.266769 171.352905,248.505447 168.532501,258.881378 
	C165.142029,271.354431 161.735840,283.855377 159.196945,296.516785 
	C157.409470,305.430908 156.919846,314.621033 156.143219,323.712921 
	C155.892960,326.642761 156.422821,329.674316 156.856079,332.621094 
	C158.405609,343.160156 161.513657,345.308899 171.965073,343.290863 
	C172.944595,343.101746 173.944885,343.020233 175.341461,342.831055 
M144.959442,351.361237 
	C143.976730,347.732697 142.994019,344.104126 141.739944,339.473663 
	C138.711685,346.772827 143.977280,361.917908 151.000031,365.102264 
	C148.710480,360.035980 146.923508,356.081787 144.959442,351.361237 
M134.764481,344.404083 
	C133.511902,351.713715 138.158752,362.330750 142.841003,362.274597 
	C140.370819,356.195984 137.933090,350.197174 134.764481,344.404083 
z"/>
<path fill="#FFBF85" opacity="1.000000" stroke="none" 
	d="
M610.921021,373.178650 
	C613.676392,375.202423 616.431763,377.226196 619.187134,379.249969 
	C619.769226,379.077850 620.351257,378.905731 620.933350,378.733582 
	C620.933350,373.715942 621.250916,368.672699 620.848938,363.687469 
	C620.396545,358.076080 619.228210,352.525848 618.492065,346.933105 
	C617.344849,338.217316 614.121948,330.384338 609.626160,322.822998 
	C606.870239,318.188019 605.285217,312.812439 603.510132,307.653900 
	C602.259827,304.020325 603.010559,300.648285 606.702942,298.639771 
	C610.390381,296.633911 611.064697,293.682251 611.095764,289.600281 
	C611.169128,279.981720 611.992615,270.366302 612.613159,260.756104 
	C612.781677,258.145905 613.605652,255.118362 616.881775,256.167328 
	C618.609924,256.720642 620.388794,259.438660 620.759888,261.436554 
	C621.603882,265.980347 621.430481,270.703491 622.013550,275.310333 
	C622.225586,276.985687 623.412292,278.537659 624.154297,280.145905 
	C625.528381,278.922943 627.259277,277.926514 628.207214,276.433105 
	C630.699341,272.506897 632.655701,268.233490 635.242554,264.378326 
	C636.159912,263.011292 638.281982,262.452728 639.854065,261.525085 
	C640.567932,263.340820 642.149475,265.324890 641.835815,266.941193 
	C640.826660,272.141663 639.337952,277.282684 637.598511,282.295471 
	C636.526367,285.385040 637.201233,287.386047 639.764465,289.101440 
	C645.688904,293.066315 647.192444,298.433716 646.309326,305.498596 
	C644.562561,319.473694 646.550171,333.268921 649.309998,347.059814 
	C651.921082,360.107208 653.058960,373.405731 649.856262,386.600006 
	C646.725647,399.497223 639.408691,408.480865 625.616333,410.497772 
	C617.164429,411.733643 609.474182,408.758301 602.407043,404.515961 
	C597.730469,401.708618 593.537842,398.095001 589.012573,394.332275 
	C596.238037,386.940979 603.579529,380.059814 610.921021,373.178650 
M625.296753,291.303070 
	C622.125061,292.232849 618.953430,293.162659 615.781738,294.092438 
	C616.607727,294.761292 617.285034,294.451355 617.802246,294.623138 
	C620.416016,295.491058 623.422791,295.992645 625.345947,297.692657 
	C626.046326,298.311798 624.712158,302.437714 623.260559,303.978638 
	C621.476074,305.872894 618.588135,306.719604 616.197388,308.055237 
	C615.409058,308.495667 614.683289,309.048279 613.928955,309.549591 
	C613.910889,310.094910 613.892761,310.640228 613.874695,311.185577 
	C620.621887,308.535156 626.072388,308.707550 627.708496,316.751190 
	C631.649780,313.280548 639.187988,317.186462 640.749329,310.572815 
	C637.205872,311.162567 633.882690,311.715637 629.353577,312.469421 
	C630.719788,307.864716 631.655212,304.712128 632.590637,301.559540 
	C632.280273,301.416901 631.969910,301.274292 631.659546,301.131653 
	C630.157898,303.588623 628.656250,306.045563 626.959351,308.821930 
	C626.085754,308.286133 625.089905,307.675415 623.941162,306.970886 
	C627.128418,302.775635 629.413635,298.833862 626.202698,293.969757 
	C625.735291,293.261597 626.071716,292.022797 626.336975,290.912933 
	C626.385315,290.812134 626.433594,290.711365 626.481934,290.610565 
	C626.312317,290.729431 626.142700,290.848328 625.296753,291.303070 
M621.735596,396.574097 
	C620.435242,399.988647 620.483337,402.802399 624.058838,405.140015 
	C627.880859,407.638824 631.788269,408.163116 634.990356,405.183075 
	C638.186951,402.208038 640.732056,398.407593 643.039673,394.647980 
	C644.512146,392.248810 646.383179,389.008209 643.388123,386.530914 
	C640.343506,384.012634 636.526306,382.027893 632.815674,385.208801 
	C628.989197,388.489014 625.612671,392.293976 621.735596,396.574097 
M641.527527,306.600372 
	C641.469482,306.835114 641.411438,307.069824 641.353394,307.304565 
	C641.495300,307.154388 641.637207,307.004211 641.527527,306.600372 
M633.482910,299.620453 
	C633.482910,299.620453 633.405334,299.492828 633.482910,299.620453 
M628.471130,289.611115 
	C628.471130,289.611115 628.376404,289.474548 628.471130,289.611115 
z"/>
<path fill="#79D0B0" opacity="1.000000" stroke="none" 
	d="
M611.100220,372.876190 
	C603.579529,380.059814 596.238037,386.940979 588.731140,394.072998 
	C586.995483,395.500916 585.425293,396.678009 583.567627,398.070618 
	C577.513062,390.627045 571.575684,383.327545 565.328125,375.852478 
	C564.003662,372.049927 562.989380,368.422943 561.871216,364.420898 
	C563.475708,362.246429 565.035278,360.271545 566.916504,358.675842 
	C580.090393,347.501495 579.960693,334.289642 574.387451,318.909729 
	C573.994446,317.825195 573.415100,316.808167 572.801575,315.398560 
	C577.140686,318.864380 582.190247,322.191437 585.943542,326.617645 
	C595.060303,337.368835 603.737549,348.507111 612.270874,359.733398 
	C617.433044,366.524689 617.163757,366.729401 611.100220,372.876190 
z"/>
<path fill="#7A9DB2" opacity="1.000000" stroke="none" 
	d="
M530.756897,492.887329 
	C540.789673,492.866852 550.822388,492.846375 561.297424,492.884277 
	C561.790100,499.323273 561.840454,505.703888 561.794983,512.545044 
	C561.699158,513.005554 561.316101,512.988953 561.146790,512.552856 
	C561.284607,509.433838 560.775940,507.712006 557.390930,507.800781 
	C554.450317,507.877899 551.467712,507.411041 548.545044,506.932434 
	C534.530457,504.637207 530.396484,500.480011 530.756897,492.887329 
z"/>
<path fill="#7BCEAD" opacity="1.000000" stroke="none" 
	d="
M422.266174,332.568909 
	C426.294617,330.341553 430.278595,328.573669 434.643097,326.707092 
	C429.484131,342.265656 423.944702,357.922882 418.125153,373.819061 
	C406.644196,368.229919 395.443390,362.401794 384.005554,356.300720 
	C395.273132,353.743256 406.746246,351.275726 418.302246,349.290649 
	C421.587067,348.726379 422.387604,347.470703 422.236877,344.481018 
	C422.044891,340.672913 422.210388,336.846771 422.266174,332.568909 
z"/>
<path fill="#779BB1" opacity="1.000000" stroke="none" 
	d="
M424.097473,493.428467 
	C434.142365,492.933441 444.197083,492.889221 454.683319,493.284302 
	C455.317017,499.960693 451.455841,503.461090 446.185577,504.666718 
	C439.180206,506.269287 431.920258,506.759186 424.769684,507.727112 
	C424.548889,503.111145 424.328094,498.495209 424.097473,493.428467 
z"/>
<path fill="#5E576A" opacity="1.000000" stroke="none" 
	d="
M424.490845,507.985718 
	C431.920258,506.759186 439.180206,506.269287 446.185577,504.666718 
	C451.455841,503.461090 455.317017,499.960693 455.164734,493.313599 
	C456.831116,492.895569 458.447601,492.887512 460.467651,492.907227 
	C461.003448,501.931885 455.961884,508.698029 446.306366,510.805817 
	C439.608337,512.268005 432.622864,512.413330 425.291382,513.193726 
	C424.615326,511.575012 424.413666,509.909668 424.490845,507.985718 
z"/>
<path fill="#5E576A" opacity="1.000000" stroke="none" 
	d="
M530.358276,492.870148 
	C530.396484,500.480011 534.530457,504.637207 548.545044,506.932434 
	C551.467712,507.411041 554.450317,507.877899 557.390930,507.800781 
	C560.775940,507.712006 561.284607,509.433838 560.955322,512.542725 
	C551.627258,513.448242 542.402771,513.124207 534.001465,508.502350 
	C528.320435,505.377014 524.589539,500.782898 525.073303,493.365173 
	C526.725403,492.913422 528.342468,492.883179 530.358276,492.870148 
z"/>
<path fill="#FFFEFD" opacity="1.000000" stroke="none" 
	d="
M368.085449,298.172211 
	C363.528473,297.679779 358.971466,297.187317 353.271362,296.571320 
	C358.306366,292.991852 362.563232,290.288269 366.457520,287.136627 
	C378.240540,277.600739 384.931732,265.105103 387.075806,250.177750 
	C387.626770,246.341812 388.671600,243.948212 393.116180,242.708374 
	C400.648163,240.607254 403.792542,234.218445 404.991211,226.914719 
	C405.365601,224.633301 405.204712,222.264038 405.609192,219.478577 
	C406.253204,219.011948 406.576965,219.008087 406.900787,219.010605 
	C409.101929,225.405151 412.414307,230.652328 419.573334,232.536438 
	C420.599823,232.806580 421.828461,234.950241 421.799103,236.199478 
	C421.243591,259.823853 434.495819,279.169220 454.489105,290.452576 
	C443.781128,293.302002 433.422760,296.058411 422.708069,298.750000 
	C422.351746,297.029358 422.351746,295.373535 422.351746,292.786987 
	C413.510986,294.604797 405.152557,296.323456 396.036743,297.900635 
	C386.459991,296.026550 377.640564,294.293915 368.551727,292.508392 
	C368.328217,295.223114 368.206848,296.697662 368.085449,298.172211 
z"/>
<path fill="#AF2F33" opacity="1.000000" stroke="none" 
	d="
M283.063019,409.008911 
	C277.719910,392.185791 285.656647,378.125549 295.757446,371.841309 
	C313.291656,360.932373 337.586365,373.272491 339.087158,393.918243 
	C339.243530,396.069214 339.536072,398.210297 339.546356,401.024170 
	C324.601379,407.821320 308.918243,408.697418 293.323517,409.891846 
	C289.945709,410.150574 286.485352,409.331543 283.063019,409.008911 
z"/>
<path fill="#C16A3B" opacity="1.000000" stroke="none" 
	d="
M282.615540,409.015778 
	C286.485352,409.331543 289.945709,410.150574 293.323517,409.891846 
	C308.918243,408.697418 324.601379,407.821320 339.531799,401.447144 
	C343.605103,399.640045 347.473938,398.078186 352.644562,395.990814 
	C350.102936,394.421539 349.127136,393.465057 347.983673,393.179260 
	C344.534698,392.317139 344.185577,389.422974 345.305756,387.380432 
	C346.199554,385.750671 349.200623,384.100494 350.987579,384.362274 
	C355.896729,385.081482 360.381958,387.626221 361.818024,392.700531 
	C363.379303,398.217255 359.754059,402.221680 355.479065,404.554810 
	C349.122559,408.023895 342.235809,410.521423 334.892700,413.694275 
	C333.052246,414.050903 331.847351,413.971710 330.742523,414.267029 
	C317.355682,417.845093 303.719421,419.216797 289.896759,419.011963 
	C283.170013,418.329956 276.358612,418.095642 269.739471,416.844452 
	C262.625427,415.499634 259.402557,410.895172 259.978455,404.613800 
	C260.415100,399.851196 267.172272,393.155640 272.209625,393.138611 
	C273.927277,393.132812 276.544922,394.510468 277.113495,395.917725 
	C277.653351,397.253906 276.447815,399.780273 275.289398,401.192322 
	C273.905060,402.879822 271.755463,403.939484 269.937347,405.271118 
	C269.980164,405.919067 270.022980,406.566986 270.065796,407.214935 
	C274.099884,407.817505 278.133942,408.420074 282.615540,409.015778 
z"/>
<path fill="#E68A65" opacity="1.000000" stroke="none" 
	d="
M291.087372,313.166504 
	C291.014191,310.618256 291.043030,308.287872 291.047089,305.957458 
	C291.059418,298.847290 291.006256,299.427979 297.822144,300.008331 
	C307.559814,300.837463 317.378021,300.734680 327.162933,300.986908 
	C330.140533,301.063660 333.121796,300.998779 337.028320,300.998779 
	C337.028320,304.883667 337.028320,308.458130 337.028015,312.490051 
	C337.020996,313.118988 337.014282,313.290497 336.629181,313.761810 
	C328.594360,317.627350 320.533417,319.190826 312.181488,317.973267 
	C305.367859,316.980042 298.648956,315.337067 291.888062,313.982178 
	C291.582367,313.864899 291.345703,313.665649 291.087372,313.166504 
z"/>
<path fill="#FEBD84" opacity="1.000000" stroke="none" 
	d="
M291.904022,314.417328 
	C298.648956,315.337067 305.367859,316.980042 312.181488,317.973267 
	C320.533417,319.190826 328.594360,317.627350 336.621155,314.019135 
	C338.475494,325.441223 325.922638,337.330841 315.272339,337.104919 
	C301.603607,336.814941 292.163605,328.181396 291.904022,314.417328 
z"/>
<path fill="#B13235" opacity="1.000000" stroke="none" 
	d="
M289.977753,419.345642 
	C303.719421,419.216797 317.355682,417.845093 330.742523,414.267029 
	C331.847351,413.971710 333.052246,414.050903 334.639954,413.935883 
	C325.798981,430.990326 304.008148,433.780640 289.977753,419.345642 
z"/>
<path fill="#7BCEAD" opacity="1.000000" stroke="none" 
	d="
M368.115906,298.593872 
	C368.206848,296.697662 368.328217,295.223114 368.551727,292.508392 
	C377.640564,294.293915 386.459991,296.026550 395.625671,297.929138 
	C386.998688,300.645844 378.025391,303.192627 368.704102,305.757538 
	C368.286163,303.522308 368.216278,301.268951 368.115906,298.593872 
z"/>
<path fill="#E68A65" opacity="1.000000" stroke="none" 
	d="
M507.001801,314.000061 
	C500.223816,314.330322 493.379578,315.390228 486.681274,314.798370 
	C479.013428,314.120819 471.449219,312.088715 463.908325,310.349060 
	C462.759521,310.084045 461.246826,308.274811 461.159363,307.087280 
	C460.832672,302.650818 461.028748,298.175842 461.028748,294.184937 
	C476.428253,295.905762 491.421173,297.581116 507.032440,299.325592 
	C507.032440,303.497375 507.032440,308.284027 507.016296,313.538025 
	C507.000183,314.005371 507.000000,314.000000 507.001801,314.000061 
z"/>
<path fill="#B13337" opacity="1.000000" stroke="none" 
	d="
M517.191833,244.033173 
	C518.915405,243.694733 520.638916,243.356308 523.034729,242.885880 
	C521.984619,251.629318 517.891907,257.482483 511.515930,262.331177 
	C501.432770,269.998932 473.579041,267.166168 466.609039,254.059830 
	C463.829468,248.833130 461.848236,243.615189 462.406891,236.857132 
	C464.562775,237.918137 466.255646,238.751266 468.259827,240.202789 
	C469.136627,246.734299 472.421967,250.229691 478.248932,250.877075 
	C487.088470,251.859161 495.976349,252.402313 504.820129,253.351410 
	C511.996796,254.121628 515.366577,250.188248 517.191833,244.033173 
z"/>
<path fill="#F2EDDA" opacity="1.000000" stroke="none" 
	d="
M516.729492,244.013931 
	C515.366577,250.188248 511.996796,254.121628 504.820129,253.351410 
	C495.976349,252.402313 487.088470,251.859161 478.248932,250.877075 
	C472.421967,250.229691 469.136627,246.734299 468.493958,240.422852 
	C475.178345,241.353775 481.891449,243.354584 488.713470,243.847366 
	C497.853912,244.507629 507.078674,244.000565 516.729492,244.013931 
z"/>
<path fill="#FBF7F4" opacity="1.000000" stroke="none" 
	d="
M406.924133,218.596985 
	C406.576965,219.008087 406.253204,219.011948 405.690857,219.031860 
	C403.700531,214.813278 401.948883,210.584976 399.930481,206.092865 
	C403.331604,191.057983 406.999451,176.286926 410.850494,161.168518 
	C412.141144,171.538345 413.248566,182.255524 414.307983,193.341110 
	C406.742523,200.349655 405.495056,208.863159 406.924133,218.596985 
z"/>
<path fill="#B13235" opacity="1.000000" stroke="none" 
	d="
M540.074280,215.839005 
	C538.993896,223.046722 535.641541,227.189163 531.502808,226.835892 
	C527.079834,226.458344 524.442688,221.485168 524.960754,214.498489 
	C525.383179,208.800308 529.257812,204.001572 533.276184,204.199890 
	C537.333862,204.400146 539.849426,208.539185 540.074280,215.839005 
z"/>
<path fill="#B13235" opacity="1.000000" stroke="none" 
	d="
M453.875977,199.921204 
	C459.681030,195.183670 465.099487,196.880051 465.827301,203.788132 
	C466.222107,207.535141 465.458649,211.716599 464.029114,215.216629 
	C463.270630,217.073730 459.901184,219.001816 457.842743,218.867676 
	C455.822266,218.735992 453.205536,216.412018 452.196106,214.381241 
	C449.820679,209.602478 450.875092,204.718933 453.875977,199.921204 
z"/>
<path fill="#613635" opacity="1.000000" stroke="none" 
	d="
M527.993164,181.941223 
	C528.759583,181.028976 529.520630,180.070038 530.204346,180.122299 
	C535.631653,180.536987 541.044312,181.143921 546.918579,181.738068 
	C546.587646,184.909668 546.300720,187.659760 545.949280,191.027924 
	C539.705261,190.405823 533.700684,189.807571 527.326294,189.172470 
	C527.566040,186.563049 527.758972,184.463058 527.993164,181.941223 
z"/>
<path fill="#613635" opacity="1.000000" stroke="none" 
	d="
M447.831665,175.618561 
	C448.894257,174.143265 449.925110,172.184036 450.942719,172.190903 
	C455.235260,172.219742 459.563751,172.614990 463.787476,173.381119 
	C464.923645,173.587219 466.364655,175.482742 466.548981,176.763458 
	C466.814484,178.608444 466.059021,180.600327 465.660004,183.007950 
	C459.564453,182.370911 453.685760,181.756531 447.216095,181.080383 
	C447.433685,179.181793 447.613770,177.610413 447.831665,175.618561 
z"/>
<path fill="#B13236" opacity="1.000000" stroke="none" 
	d="
M293.996124,268.191986 
	C286.726837,261.793121 285.834595,253.363129 286.149933,243.749542 
	C288.059418,244.136383 289.563538,244.441086 291.469055,245.285950 
	C292.759888,248.453781 292.137573,251.858414 296.195587,252.691528 
	C308.462799,255.210052 320.682404,255.824112 333.130066,253.675247 
	C338.543884,252.740662 340.869049,250.176590 341.147736,245.073120 
	C342.862427,244.676834 344.577087,244.280548 346.646454,243.802292 
	C347.999756,253.485962 345.572937,261.601898 338.877258,268.701904 
	C336.550812,268.598785 334.430847,267.779419 333.234253,268.497864 
	C322.090149,275.188721 311.149994,274.215759 300.008209,268.510162 
	C298.377502,267.675110 296.018280,268.262665 293.996124,268.191986 
z"/>
<path fill="#F2EDDA" opacity="1.000000" stroke="none" 
	d="
M340.742004,245.099701 
	C340.869049,250.176590 338.543884,252.740662 333.130066,253.675247 
	C320.682404,255.824112 308.462799,255.210052 296.195587,252.691528 
	C292.137573,251.858414 292.759888,248.453781 291.829041,245.428009 
	C301.289337,246.009720 310.780243,247.592514 320.296509,247.763336 
	C326.958496,247.882950 333.655151,246.073929 340.742004,245.099701 
z"/>
<path fill="#B13235" opacity="1.000000" stroke="none" 
	d="
M364.075439,213.276276 
	C365.663452,218.306442 365.586700,222.848953 362.815430,227.001755 
	C360.012054,231.202606 354.314728,231.454697 352.307098,226.938339 
	C350.670410,223.256348 350.009705,218.589294 350.654510,214.643066 
	C351.067047,212.118271 354.261017,209.146606 356.891785,208.109238 
	C360.336060,206.751099 362.510956,209.863403 364.075439,213.276276 
z"/>
<path fill="#B13235" opacity="1.000000" stroke="none" 
	d="
M282.981323,222.380920 
	C282.231842,224.298660 281.737488,225.927582 280.821686,227.268707 
	C278.409363,230.801468 274.575897,231.120697 271.486603,228.213867 
	C267.096252,224.082825 266.834412,214.339401 270.995941,209.955307 
	C274.047150,206.740921 279.062256,206.918900 280.988953,211.044647 
	C282.506622,214.294617 282.418976,218.294266 282.981323,222.380920 
z"/>
<path fill="#F2EDDA" opacity="1.000000" stroke="none" 
	d="
M294.058929,268.518799 
	C296.018280,268.262665 298.377502,267.675110 300.008209,268.510162 
	C311.149994,274.215759 322.090149,275.188721 333.234253,268.497864 
	C334.430847,267.779419 336.550812,268.598785 338.586243,268.883118 
	C327.717651,282.555176 304.314972,282.442474 294.058929,268.518799 
z"/>
<path fill="#C36E3F" opacity="1.000000" stroke="none" 
	d="
M278.308807,190.955643 
	C276.587097,191.631821 275.333038,192.489243 273.947174,192.885223 
	C272.670441,193.250015 270.731262,193.693481 270.030334,193.058136 
	C269.189056,192.295578 268.644684,189.706650 269.199677,189.163635 
	C271.525909,186.887741 274.162689,183.752914 276.966370,183.438889 
	C280.478058,183.045593 284.309448,184.986847 287.871887,186.280914 
	C288.278961,186.428802 288.321503,189.207855 287.667664,190.191803 
	C287.011108,191.179764 285.286804,191.882965 284.003876,191.926392 
	C282.255463,191.985611 280.481812,191.301208 278.308807,190.955643 
z"/>
<path fill="#C36E3F" opacity="1.000000" stroke="none" 
	d="
M352.426422,191.293243 
	C348.974274,192.634750 345.928528,192.363739 345.493744,188.798401 
	C345.311554,187.304520 347.813080,184.744797 349.660309,183.884369 
	C354.636688,181.566360 361.541077,183.406418 363.854401,187.529785 
	C364.658661,188.963379 364.132904,191.143173 364.214630,192.982147 
	C362.586761,192.847794 360.940491,192.822647 359.335510,192.552460 
	C357.146271,192.183884 354.988495,191.628540 352.426422,191.293243 
z"/>
<path fill="#E99268" opacity="1.000000" stroke="none" 
	d="
M188.633209,321.896301 
	C195.246353,320.874451 201.819641,320.241272 209.083923,319.541565 
	C202.508240,325.702362 195.531845,323.855438 188.633209,321.896301 
z"/>
<path fill="#FFFFFF" opacity="1.000000" stroke="none" 
	d="
M415.776978,131.054626 
	C415.913666,131.527161 415.755066,132.088211 415.342743,132.799591 
	C415.219910,132.347687 415.350769,131.745422 415.776978,131.054626 
z"/>
<path fill="#FFFFFF" opacity="1.000000" stroke="none" 
	d="
M367.073792,100.082489 
	C366.945312,100.393700 366.621887,100.510712 366.298431,100.627724 
	C366.254425,100.393761 366.210388,100.159805 366.317200,99.723923 
	C366.604950,99.644104 366.741882,99.766205 367.073792,100.082489 
z"/>
<path fill="#FF8D68" opacity="1.000000" stroke="none" 
	d="
M145.047974,351.744385 
	C146.923508,356.081787 148.710480,360.035980 151.000031,365.102264 
	C143.977280,361.917908 138.711685,346.772827 141.739944,339.473663 
	C142.994019,344.104126 143.976730,347.732697 145.047974,351.744385 
z"/>
<path fill="#FF8D68" opacity="1.000000" stroke="none" 
	d="
M135.129913,344.301208 
	C137.933090,350.197174 140.370819,356.195984 142.841003,362.274597 
	C138.158752,362.330750 133.511902,351.713715 135.129913,344.301208 
z"/>
<path fill="#FFFFFF" opacity="1.000000" stroke="none" 
	d="
M149.011017,216.989685 
	C149.173035,217.144562 149.327011,217.306824 149.480988,217.469101 
	C149.359909,217.430237 149.238846,217.391373 149.054779,217.181412 
	C148.991776,217.010330 149.003006,216.997070 149.011017,216.989685 
z"/>
<path fill="#FF8D68" opacity="1.000000" stroke="none" 
	d="
M621.887451,396.221741 
	C625.612671,392.293976 628.989197,388.489014 632.815674,385.208801 
	C636.526306,382.027893 640.343506,384.012634 643.388123,386.530914 
	C646.383179,389.008209 644.512146,392.248810 643.039673,394.647980 
	C640.732056,398.407593 638.186951,402.208038 634.990356,405.183075 
	C631.788269,408.163116 627.880859,407.638824 624.058838,405.140015 
	C620.483337,402.802399 620.435242,399.988647 621.887451,396.221741 
z"/>
<path fill="#E99268" opacity="1.000000" stroke="none" 
	d="
M626.036255,291.029541 
	C626.071716,292.022797 625.735291,293.261597 626.202698,293.969757 
	C629.413635,298.833862 627.128418,302.775635 623.941162,306.970886 
	C625.089905,307.675415 626.085754,308.286133 626.959351,308.821930 
	C628.656250,306.045563 630.157898,303.588623 631.659546,301.131653 
	C631.969910,301.274292 632.280273,301.416901 632.590637,301.559540 
	C631.655212,304.712128 630.719788,307.864716 629.353577,312.469421 
	C633.882690,311.715637 637.205872,311.162567 640.749329,310.572815 
	C639.187988,317.186462 631.649780,313.280548 627.708496,316.751190 
	C626.072388,308.707550 620.621887,308.535156 613.874695,311.185577 
	C613.892761,310.640228 613.910889,310.094910 613.928955,309.549591 
	C614.683289,309.048279 615.409058,308.495667 616.197388,308.055237 
	C618.588135,306.719604 621.476074,305.872894 623.260559,303.978638 
	C624.712158,302.437714 626.046326,298.311798 625.345947,297.692657 
	C623.422791,295.992645 620.416016,295.491058 617.802246,294.623138 
	C617.285034,294.451355 616.607727,294.761292 615.781738,294.092438 
	C618.953430,293.162659 622.125061,292.232849 625.649536,291.151855 
	C626.002319,291.000671 626.036255,291.029541 626.036255,291.029541 
z"/>
<path fill="#E99268" opacity="1.000000" stroke="none" 
	d="
M641.653320,306.727203 
	C641.637207,307.004211 641.495300,307.154388 641.353394,307.304565 
	C641.411438,307.069824 641.469482,306.835114 641.653320,306.727203 
z"/>
<path fill="#E99268" opacity="1.000000" stroke="none" 
	d="
M633.444092,299.556641 
	C633.405334,299.492828 633.482910,299.620453 633.444092,299.556641 
z"/>
<path fill="#E99268" opacity="1.000000" stroke="none" 
	d="
M625.987671,290.983948 
	C626.142700,290.848328 626.312317,290.729431 626.481934,290.610565 
	C626.433594,290.711365 626.385315,290.812134 626.186646,290.971252 
	C626.036255,291.029541 626.002319,291.000671 625.987671,290.983948 
z"/>
<path fill="#E99268" opacity="1.000000" stroke="none" 
	d="
M628.423767,289.542847 
	C628.376404,289.474548 628.471130,289.611115 628.423767,289.542847 
z"/>
</svg>